<?xml version="1.0" encoding="UTF-8" standalone="no"?>
<!-- Created with Inkscape (http://www.inkscape.org/) -->

<svg
   xmlns:dc="http://purl.org/dc/elements/1.1/"
   xmlns:cc="http://creativecommons.org/ns#"
   xmlns:rdf="http://www.w3.org/1999/02/22-rdf-syntax-ns#"
   xmlns:svg="http://www.w3.org/2000/svg"
   xmlns="http://www.w3.org/2000/svg"
   xmlns:sodipodi="http://sodipodi.sourceforge.net/DTD/sodipodi-0.dtd"
   xmlns:inkscape="http://www.inkscape.org/namespaces/inkscape"
   version="1.1"
   id="svg29"
   xml:space="preserve"
   width="512"
   height="512"
   viewBox="0 0 512 512"
   sodipodi:docname="favicon.svg"
   inkscape:export-filename="/home/nick/Downloads/favicon.png"
   inkscape:export-xdpi="96.000008"
   inkscape:export-ydpi="96.000008"
   inkscape:version="0.92.3 (2405546, 2018-03-11)"><metadata
     id="metadata35"><rdf:RDF><cc:Work
         rdf:about=""><dc:format>image/svg+xml</dc:format><dc:type
           rdf:resource="http://purl.org/dc/dcmitype/StillImage" /><dc:title></dc:title></cc:Work></rdf:RDF></metadata><defs
     id="defs33"><clipPath
       clipPathUnits="userSpaceOnUse"
       id="clipPath47"><path
         d="M 0,612 H 792 V 0 H 0 Z"
         id="path45"
         inkscape:connector-curvature="0" /></clipPath><filter
       style="color-interpolation-filters:sRGB"
       inkscape:label="Drop Shadow"
       id="filter481"><feFlood
         flood-opacity="0.498039"
         flood-color="rgb(0,0,0)"
         result="flood"
         id="feFlood471" /><feComposite
         in="flood"
         in2="SourceGraphic"
         operator="in"
         result="composite1"
         id="feComposite473" /><feGaussianBlur
         in="composite1"
         stdDeviation="1.5"
         result="blur"
         id="feGaussianBlur475" /><feOffset
         dx="4.52416e-15"
         dy="0"
         result="offset"
         id="feOffset477" /><feComposite
         in="SourceGraphic"
         in2="offset"
         operator="over"
         result="composite2"
         id="feComposite479" /></filter></defs><sodipodi:namedview
     pagecolor="#ffffff"
     bordercolor="#666666"
     borderopacity="1"
     objecttolerance="10"
     gridtolerance="10"
     guidetolerance="10"
     inkscape:pageopacity="0"
     inkscape:pageshadow="2"
     inkscape:window-width="1920"
     inkscape:window-height="1017"
     id="namedview31"
     showgrid="false"
     inkscape:zoom="1.0220588"
     inkscape:cx="339.39044"
     inkscape:cy="176.55073"
     inkscape:window-x="1920"
     inkscape:window-y="30"
     inkscape:window-maximized="1"
     inkscape:current-layer="g37" /><g
     id="g37"
     inkscape:groupmode="layer"
     inkscape:label="Horizontal"
     transform="matrix(1.3333333,0,0,-1.3333333,0,512)"><g
       id="g49"
       transform="matrix(5.3333335,0,0,5.3333335,271.38667,262.83201)"
       style="filter:url(#filter481)"><path
         d="m 0,0 -13.668,-28.046 c -0.158,-0.315 -0.367,-0.563 -0.625,-0.743 -0.259,-0.179 -0.546,-0.27 -0.861,-0.27 -0.382,0 -0.776,0.158 -1.18,0.473 -0.406,0.315 -0.608,0.72 -0.608,1.214 0,0.271 0.067,0.54 0.202,0.811 L -3.037,1.485 c 0.157,0.315 0.371,0.562 0.641,0.743 0.27,0.179 0.551,0.27 0.844,0.27 0.382,0 0.77,-0.152 1.164,-0.456 C 0.006,1.738 0.203,1.327 0.203,0.81 0.203,0.54 0.135,0.27 0,0 m -27.324,-28.789 c -0.259,-0.179 -0.546,-0.27 -0.86,-0.27 -0.383,0 -0.776,0.158 -1.181,0.473 -0.406,0.315 -0.608,0.72 -0.608,1.214 0,0.271 0.067,0.54 0.202,0.811 l 13.703,28.046 c 0.157,0.315 0.371,0.562 0.642,0.743 0.269,0.179 0.55,0.27 0.843,0.27 0.382,0 0.77,-0.152 1.165,-0.456 0.393,-0.304 0.59,-0.715 0.59,-1.232 0,-0.27 -0.068,-0.54 -0.203,-0.81 l -13.668,-28.046 c -0.158,-0.315 -0.366,-0.563 -0.625,-0.743 m 39.099,45.508 h -53.32 c -1.845,0 -3.34,-1.495 -3.34,-3.34 v -53.32 c 0,-1.845 1.495,-3.34 3.34,-3.34 h 53.32 c 1.845,0 3.34,1.495 3.34,3.34 v 53.32 c 0,1.845 -1.495,3.34 -3.34,3.34"
         style="fill:#ffffff;fill-opacity:1;fill-rule:nonzero;stroke:none"
         id="path51"
         inkscape:connector-curvature="0" /></g></g></svg>