<?xml version="1.0" encoding="UTF-8" standalone="no"?>
<!-- Created with Inkscape (http://www.inkscape.org/) -->

<svg
   xmlns:dc="http://purl.org/dc/elements/1.1/"
   xmlns:cc="http://creativecommons.org/ns#"
   xmlns:rdf="http://www.w3.org/1999/02/22-rdf-syntax-ns#"
   xmlns:svg="http://www.w3.org/2000/svg"
   xmlns="http://www.w3.org/2000/svg"
   xmlns:sodipodi="http://sodipodi.sourceforge.net/DTD/sodipodi-0.dtd"
   xmlns:inkscape="http://www.inkscape.org/namespaces/inkscape"
   width="512"
   height="512"
   viewBox="0 0 135.46666 135.46667"
   version="1.1"
   id="svg157"
   inkscape:version="0.92.3 (2405546, 2018-03-11)"
   sodipodi:docname="Transparent_Shadowed_Icon.svg">
  <defs
     id="defs151">
    <clipPath
       clipPathUnits="userSpaceOnUse"
       id="clipPath20">
      <path
         d="M 0,612 H 792 V 0 H 0 Z"
         id="path18"
         inkscape:connector-curvature="0" />
    </clipPath>
    <filter
       style="color-interpolation-filters:sRGB;"
       inkscape:label="Drop Shadow"
       id="filter656">
      <feFlood
         flood-opacity="0.498039"
         flood-color="rgb(0,0,0)"
         result="flood"
         id="feFlood646" />
      <feComposite
         in="flood"
         in2="SourceGraphic"
         operator="in"
         result="composite1"
         id="feComposite648" />
      <feGaussianBlur
         in="composite1"
         stdDeviation="0.7"
         result="blur"
         id="feGaussianBlur650" />
      <feOffset
         dx="4.52416e-15"
         dy="0"
         result="offset"
         id="feOffset652" />
      <feComposite
         in="SourceGraphic"
         in2="offset"
         operator="over"
         result="composite2"
         id="feComposite654" />
    </filter>
  </defs>
  <sodipodi:namedview
     id="base"
     pagecolor="#ffffff"
     bordercolor="#666666"
     borderopacity="1.0"
     inkscape:pageopacity="0.0"
     inkscape:pageshadow="2"
     inkscape:zoom="0.98994949"
     inkscape:cx="219.15299"
     inkscape:cy="277.28253"
     inkscape:document-units="mm"
     inkscape:current-layer="layer1"
     showgrid="false"
     units="px"
     inkscape:window-width="1920"
     inkscape:window-height="1017"
     inkscape:window-x="1920"
     inkscape:window-y="30"
     inkscape:window-maximized="1" />
  <metadata
     id="metadata154">
    <rdf:RDF>
      <cc:Work
         rdf:about="">
        <dc:format>image/svg+xml</dc:format>
        <dc:type
           rdf:resource="http://purl.org/dc/dcmitype/StillImage" />
        <dc:title></dc:title>
      </cc:Work>
    </rdf:RDF>
  </metadata>
  <g
     inkscape:label="Layer 1"
     inkscape:groupmode="layer"
     id="layer1"
     transform="translate(0,-161.53332)">
    <path
       inkscape:connector-curvature="0"
       id="path24"
       style="fill:#ffffff;fill-opacity:1;fill-rule:nonzero;stroke:none;stroke-width:0.35277778;filter:url(#filter656)"
       d="m 96.854994,112.39808 -4.821767,9.89401 c -0.05574,0.11112 -0.129469,0.19861 -0.220486,0.26211 -0.09137,0.0632 -0.192616,0.0953 -0.303741,0.0953 -0.134761,0 -0.273756,-0.0557 -0.416278,-0.16686 -0.143228,-0.11113 -0.214489,-0.254 -0.214489,-0.42828 0,-0.0956 0.02364,-0.1905 0.07126,-0.2861 l 4.834114,-9.894 c 0.05539,-0.11113 0.13088,-0.19827 0.22613,-0.26212 0.09525,-0.0631 0.194381,-0.0952 0.297745,-0.0952 0.134761,0 0.271639,0.0536 0.410633,0.16087 0.138995,0.10724 0.208492,0.25223 0.208492,0.43462 0,0.0952 -0.02399,0.1905 -0.07161,0.28575 m -9.6393,10.15612 c -0.09137,0.0632 -0.192616,0.0953 -0.303389,0.0953 -0.135114,0 -0.273755,-0.0557 -0.41663,-0.16686 -0.143228,-0.11113 -0.214489,-0.254 -0.214489,-0.42828 0,-0.0956 0.02364,-0.1905 0.07126,-0.2861 l 4.834114,-9.894 c 0.05539,-0.11113 0.13088,-0.19827 0.226483,-0.26212 0.0949,-0.0631 0.194028,-0.0952 0.297392,-0.0952 0.134761,0 0.271639,0.0536 0.410986,0.16087 0.138642,0.10724 0.208139,0.25223 0.208139,0.43462 0,0.0952 -0.02399,0.1905 -0.07161,0.28575 l -4.821767,9.89401 c -0.05574,0.11112 -0.129116,0.19861 -0.220486,0.26211 m 13.79325,-16.05441 H 82.198842 c -0.650875,0 -1.178278,0.5274 -1.178278,1.17828 v 18.81011 c 0,0.65087 0.527403,1.17827 1.178278,1.17827 h 18.810108 c 0.65088,0 1.17828,-0.5274 1.17828,-1.17827 v -18.81011 c 0,-0.65088 -0.5274,-1.17828 -1.17828,-1.17828"
       transform="matrix(5.3333334,0,0,5.3333334,-420.82079,-395.17773)" />
  </g>
</svg>
