<svg xmlns="http://www.w3.org/2000/svg" width="512" height="512" viewBox="0 0 135.467 135.467"><path d="M17.54 14.493h100.387v106.48H17.54z"/><path d="M101.34 37.748l-30.859 63.321c-.357.712-.829 1.272-1.411 1.678a3.344 3.344 0 01-1.944.61c-.862 0-1.752-.357-2.664-1.068-.917-.711-1.373-1.626-1.373-2.741 0-.612.151-1.22.456-1.831l30.938-63.322c.355-.71.838-1.269 1.448-1.677.61-.404 1.244-.61 1.905-.61.863 0 1.739.344 2.628 1.03.89.686 1.335 1.614 1.335 2.782 0 .609-.154 1.219-.459 1.828m-61.691 65a3.343 3.343 0 01-1.942.61c-.865 0-1.752-.357-2.666-1.068-.917-.712-1.373-1.626-1.373-2.741 0-.612.151-1.22.456-1.831l30.938-63.322c.355-.711.838-1.269 1.45-1.678.607-.403 1.242-.609 1.903-.609.863 0 1.739.343 2.63 1.03.888.686 1.333 1.614 1.333 2.781 0 .61-.154 1.22-.459 1.83L41.06 101.07c-.357.712-.826 1.272-1.411 1.678M127.926 0H7.54A7.54 7.54 0 000 7.541v120.385a7.54 7.54 0 007.541 7.54h120.385a7.54 7.54 0 007.54-7.54V7.54A7.54 7.54 0 00127.927 0" fill="#fff"/></svg>