<?xml version="1.0" encoding="UTF-8" standalone="no"?>
<!-- Created with Inkscape (http://www.inkscape.org/) -->

<svg
   xmlns:dc="http://purl.org/dc/elements/1.1/"
   xmlns:cc="http://creativecommons.org/ns#"
   xmlns:rdf="http://www.w3.org/1999/02/22-rdf-syntax-ns#"
   xmlns:svg="http://www.w3.org/2000/svg"
   xmlns="http://www.w3.org/2000/svg"
   xmlns:sodipodi="http://sodipodi.sourceforge.net/DTD/sodipodi-0.dtd"
   xmlns:inkscape="http://www.inkscape.org/namespaces/inkscape"
   version="1.1"
   id="svg2"
   xml:space="preserve"
   width="656.133"
   height="80"
   viewBox="0 0 656.133 80"
   sodipodi:docname="logo.svg"
   inkscape:version="0.92.3 (2405546, 2018-03-11)"><metadata
     id="metadata8"><rdf:RDF><cc:Work
         rdf:about=""><dc:format>image/svg+xml</dc:format><dc:type
           rdf:resource="http://purl.org/dc/dcmitype/StillImage" /><dc:title></dc:title></cc:Work></rdf:RDF></metadata><defs
     id="defs6"><clipPath
       clipPathUnits="userSpaceOnUse"
       id="clipPath20"><path
         d="M 0,612 H 792 V 0 H 0 Z"
         id="path18"
         inkscape:connector-curvature="0" /></clipPath></defs><sodipodi:namedview
     pagecolor="#ffffff"
     bordercolor="#666666"
     borderopacity="1"
     objecttolerance="10"
     gridtolerance="10"
     guidetolerance="10"
     inkscape:pageopacity="0"
     inkscape:pageshadow="2"
     inkscape:window-width="1920"
     inkscape:window-height="1017"
     id="namedview4"
     showgrid="false"
     inkscape:zoom="1.5856334"
     inkscape:cx="338.47458"
     inkscape:cy="-0.52132997"
     inkscape:window-x="1920"
     inkscape:window-y="30"
     inkscape:window-maximized="1"
     inkscape:current-layer="g10" /><g
     id="g10"
     inkscape:groupmode="layer"
     inkscape:label="Horizontal"
     transform="matrix(1.3333333,0,0,-1.3333333,0,80)"><g
       id="g14"
       transform="translate(-149.95022,-275.9998)"><g
         id="g16"
         clip-path="url(#clipPath20)"><g
           id="g22"
           transform="translate(194.8354,319.2808)"><path
             d="m 0,0 -13.668,-28.046 c -0.158,-0.315 -0.367,-0.563 -0.625,-0.743 -0.259,-0.179 -0.546,-0.27 -0.861,-0.27 -0.382,0 -0.776,0.158 -1.18,0.473 -0.406,0.315 -0.608,0.72 -0.608,1.214 0,0.271 0.067,0.54 0.202,0.811 L -3.037,1.485 c 0.157,0.315 0.371,0.562 0.641,0.743 0.27,0.179 0.551,0.27 0.844,0.27 0.382,0 0.77,-0.152 1.164,-0.456 C 0.006,1.738 0.203,1.327 0.203,0.81 0.203,0.54 0.135,0.27 0,0 m -27.324,-28.789 c -0.259,-0.179 -0.546,-0.27 -0.86,-0.27 -0.383,0 -0.776,0.158 -1.181,0.473 -0.406,0.315 -0.608,0.72 -0.608,1.214 0,0.271 0.067,0.54 0.202,0.811 l 13.703,28.046 c 0.157,0.315 0.371,0.562 0.642,0.743 0.269,0.179 0.55,0.27 0.843,0.27 0.382,0 0.77,-0.152 1.165,-0.456 0.393,-0.304 0.59,-0.715 0.59,-1.232 0,-0.27 -0.068,-0.54 -0.203,-0.81 l -13.668,-28.046 c -0.158,-0.315 -0.366,-0.563 -0.625,-0.743 m 39.099,45.508 h -53.32 c -1.845,0 -3.34,-1.495 -3.34,-3.34 v -53.32 c 0,-1.845 1.495,-3.34 3.34,-3.34 h 53.32 c 1.845,0 3.34,1.495 3.34,3.34 v 53.32 c 0,1.845 -1.495,3.34 -3.34,3.34"
             style="fill:#ffffff;fill-opacity:1;fill-rule:nonzero;stroke:none"
             id="path24"
             inkscape:connector-curvature="0" /></g><g
           id="g26"
           transform="translate(258.1929,298.5459)"><path
             d="m 0,0 c -0.884,-2.35 -2.268,-4.217 -4.15,-5.6 -1.884,-1.383 -4.359,-2.075 -7.425,-2.075 h -11.4 v 30.999 h 11.4 c 2.3,0 4.266,-0.417 5.9,-1.25 1.633,-0.834 2.966,-1.974 4,-3.425 C -0.643,17.199 0.116,15.541 0.6,13.674 1.083,11.807 1.325,9.857 1.325,7.824 1.325,4.958 0.883,2.351 0,0 m -0.05,19.999 c -1.184,1.65 -2.692,2.95 -4.525,3.9 -1.834,0.951 -4,1.425 -6.5,1.425 h -13 c -0.267,0 -0.5,-0.099 -0.7,-0.3 -0.2,-0.2 -0.3,-0.433 -0.3,-0.7 V -8.675 c 0,-0.267 0.1,-0.5 0.3,-0.7 0.2,-0.2 0.433,-0.3 0.7,-0.3 h 13 c 3.366,0 6.116,0.791 8.25,2.375 2.133,1.583 3.708,3.7 4.725,6.35 1.016,2.65 1.525,5.575 1.525,8.774 0,2.267 -0.284,4.45 -0.85,6.55 -0.567,2.101 -1.442,3.976 -2.625,5.625"
             style="fill:#ffffff;fill-opacity:1;fill-rule:nonzero;stroke:none"
             id="path28"
             inkscape:connector-curvature="0" /></g><g
           id="g30"
           transform="translate(268.7422,321.6201)"><path
             d="M 0,0 C -0.534,0 -0.967,-0.15 -1.3,-0.45 -1.634,-0.75 -1.8,-1.134 -1.8,-1.6 V -2 c 0,-0.467 0.157,-0.85 0.475,-1.15 0.316,-0.3 0.741,-0.45 1.275,-0.45 0.5,0 0.907,0.15 1.225,0.45 0.316,0.3 0.475,0.683 0.475,1.15 v 0.4 c 0,0.466 -0.159,0.85 -0.475,1.15 C 0.857,-0.15 0.466,0 0,0"
             style="fill:#ffffff;fill-opacity:1;fill-rule:nonzero;stroke:none"
             id="path32"
             inkscape:connector-curvature="0" /></g><g
           id="g34"
           transform="translate(268.6919,314.6201)"><path
             d="M 0,0 C -0.267,0 -0.5,-0.1 -0.7,-0.3 -0.9,-0.5 -1,-0.733 -1,-1 v -23.749 c 0,-0.268 0.091,-0.5 0.275,-0.7 0.183,-0.2 0.425,-0.3 0.725,-0.3 0.267,0 0.5,0.1 0.7,0.3 0.2,0.2 0.3,0.432 0.3,0.7 V -1 C 1,-0.733 0.908,-0.5 0.725,-0.3 0.542,-0.1 0.3,0 0,0"
             style="fill:#ffffff;fill-opacity:1;fill-rule:nonzero;stroke:none"
             id="path36"
             inkscape:connector-curvature="0" /></g><g
           id="g38"
           transform="translate(292.5967,291.6963)"><path
             d="m 0,0 c -1.533,-0.95 -3.267,-1.425 -5.2,-1.425 -1.933,0 -3.675,0.491 -5.225,1.475 -1.55,0.982 -2.767,2.325 -3.65,4.025 -0.883,1.699 -1.325,3.616 -1.325,5.75 0,2.166 0.442,4.09 1.325,5.774 0.883,1.682 2.1,3.007 3.65,3.975 1.55,0.966 3.292,1.449 5.225,1.449 1.933,0 3.667,-0.466 5.2,-1.399 C 1.533,18.69 2.75,17.382 3.65,15.699 4.55,14.016 5,12.058 5,9.825 5,7.591 4.55,5.633 3.65,3.95 2.75,2.267 1.533,0.95 0,0 m 5.8,22.124 c -0.3,0 -0.542,-0.101 -0.725,-0.3 C 4.892,21.624 4.8,21.391 4.8,21.124 v -4.263 c -0.058,0.121 -0.108,0.242 -0.175,0.363 -0.55,1 -1.317,1.932 -2.3,2.799 -0.983,0.868 -2.125,1.567 -3.425,2.101 -1.3,0.532 -2.7,0.8 -4.2,0.8 -2.3,0 -4.358,-0.568 -6.175,-1.7 -1.817,-1.134 -3.258,-2.693 -4.325,-4.675 -1.067,-1.984 -1.6,-4.224 -1.6,-6.724 0,-2.5 0.533,-4.742 1.6,-6.725 1.067,-1.984 2.508,-3.55 4.325,-4.701 1.817,-1.149 3.875,-1.724 6.175,-1.724 1,0 2.042,0.142 3.125,0.425 1.083,0.283 2.116,0.733 3.1,1.35 0.983,0.616 1.858,1.425 2.625,2.425 C 4.046,1.521 4.458,2.27 4.8,3.099 V -0.375 C 4.8,-3.508 3.892,-6.05 2.075,-8 0.258,-9.95 -2.233,-10.925 -5.4,-10.925 c -0.9,0 -1.717,0.059 -2.45,0.175 -0.733,0.117 -1.358,0.259 -1.875,0.425 -0.517,0.167 -0.925,0.3 -1.225,0.4 -0.734,0.3 -1.242,0.633 -1.525,1 -0.283,0.367 -0.592,0.55 -0.925,0.55 -0.267,0 -0.475,-0.083 -0.625,-0.25 -0.15,-0.167 -0.225,-0.383 -0.225,-0.65 0,-0.6 0.45,-1.166 1.35,-1.701 0.9,-0.532 2.025,-0.974 3.375,-1.324 1.35,-0.35 2.692,-0.525 4.025,-0.525 2.433,0 4.566,0.5 6.4,1.5 1.833,1 3.275,2.433 4.325,4.3 1.05,1.867 1.576,4.084 1.576,6.65 v 21.499 c 0,0.267 -0.093,0.5 -0.276,0.7 -0.183,0.199 -0.425,0.3 -0.725,0.3"
             style="fill:#ffffff;fill-opacity:1;fill-rule:nonzero;stroke:none"
             id="path40"
             inkscape:connector-curvature="0" /></g><g
           id="g42"
           transform="translate(307.627,314.6201)"><path
             d="M 0,0 C -0.268,0 -0.5,-0.1 -0.7,-0.3 -0.9,-0.5 -1,-0.733 -1,-1 v -23.749 c 0,-0.268 0.091,-0.5 0.274,-0.7 0.183,-0.2 0.425,-0.3 0.726,-0.3 0.266,0 0.5,0.1 0.699,0.3 0.2,0.2 0.301,0.432 0.301,0.7 V -1 C 1,-0.733 0.907,-0.5 0.725,-0.3 0.541,-0.1 0.3,0 0,0"
             style="fill:#ffffff;fill-opacity:1;fill-rule:nonzero;stroke:none"
             id="path44"
             inkscape:connector-curvature="0" /></g><g
           id="g46"
           transform="translate(307.6768,321.6201)"><path
             d="M 0,0 C -0.534,0 -0.968,-0.15 -1.3,-0.45 -1.634,-0.75 -1.8,-1.134 -1.8,-1.6 V -2 c 0,-0.467 0.157,-0.85 0.475,-1.15 0.316,-0.3 0.741,-0.45 1.275,-0.45 0.5,0 0.907,0.15 1.225,0.45 0.316,0.3 0.474,0.683 0.474,1.15 v 0.4 c 0,0.466 -0.158,0.85 -0.474,1.15 C 0.857,-0.15 0.466,0 0,0"
             style="fill:#ffffff;fill-opacity:1;fill-rule:nonzero;stroke:none"
             id="path48"
             inkscape:connector-curvature="0" /></g><g
           id="g50"
           transform="translate(325.4609,314.0205)"><path
             d="m 0,0 h -5.5 v 6.35 c 0,0.266 -0.093,0.5 -0.275,0.7 -0.184,0.2 -0.425,0.3 -0.725,0.3 -0.268,0 -0.5,-0.1 -0.7,-0.3 -0.2,-0.2 -0.3,-0.434 -0.3,-0.7 V 0 h -4.101 c -0.233,0 -0.449,-0.093 -0.649,-0.275 -0.2,-0.184 -0.3,-0.409 -0.3,-0.675 0,-0.234 0.1,-0.45 0.3,-0.651 0.2,-0.2 0.416,-0.299 0.649,-0.299 H -7.5 v -17.9 c 0,-1.467 0.2,-2.574 0.6,-3.324 0.4,-0.75 0.891,-1.268 1.475,-1.551 0.582,-0.283 1.133,-0.433 1.65,-0.449 0.516,-0.018 0.875,-0.025 1.075,-0.025 0.566,0 1.041,0.107 1.425,0.325 0.382,0.216 0.575,0.474 0.575,0.774 0,0.234 -0.084,0.442 -0.25,0.625 -0.167,0.184 -0.367,0.276 -0.6,0.276 -0.234,0 -0.433,-0.034 -0.6,-0.1 -0.167,-0.067 -0.368,-0.101 -0.6,-0.101 -0.4,0 -0.817,0.076 -1.25,0.226 -0.434,0.149 -0.792,0.482 -1.075,1 -0.283,0.516 -0.425,1.324 -0.425,2.425 V -1.9 H 0 c 0.267,0 0.491,0.091 0.675,0.275 0.182,0.183 0.275,0.407 0.275,0.675 0,0.232 -0.093,0.45 -0.275,0.649 C 0.491,-0.101 0.267,0 0,0"
             style="fill:#ffffff;fill-opacity:1;fill-rule:nonzero;stroke:none"
             id="path52"
             inkscape:connector-curvature="0" /></g><g
           id="g54"
           transform="translate(348.1602,295.7959)"><path
             d="m 0,0 c -0.833,-1.717 -1.983,-3.067 -3.45,-4.05 -1.467,-0.983 -3.133,-1.474 -5,-1.474 -1.867,0 -3.533,0.491 -5,1.474 -1.467,0.983 -2.617,2.333 -3.449,4.05 -0.834,1.717 -1.25,3.658 -1.25,5.825 0,2.166 0.424,4.082 1.274,5.749 0.851,1.666 2.008,2.975 3.476,3.925 1.465,0.95 3.116,1.425 4.949,1.425 1.867,0 3.533,-0.492 5,-1.475 1.467,-0.983 2.617,-2.317 3.45,-4 C 0.833,9.766 1.25,7.892 1.25,5.825 1.25,3.658 0.833,1.717 0,0 m 2.05,18.024 c -0.3,0 -0.542,-0.1 -0.725,-0.299 C 1.142,17.524 1.05,17.291 1.05,17.024 V 12.6 c -0.533,1.25 -1.275,2.34 -2.225,3.274 -0.95,0.933 -2.058,1.658 -3.325,2.175 -1.267,0.516 -2.617,0.775 -4.05,0.775 -2.2,0 -4.175,-0.558 -5.925,-1.675 -1.75,-1.117 -3.133,-2.65 -4.15,-4.6 -1.017,-1.949 -1.524,-4.191 -1.524,-6.724 0,-2.5 0.5,-4.75 1.5,-6.75 1,-2 2.375,-3.584 4.125,-4.75 1.75,-1.167 3.741,-1.75 5.974,-1.75 1.467,0 2.833,0.276 4.1,0.825 1.266,0.55 2.367,1.275 3.301,2.175 0.932,0.901 1.666,1.901 2.199,3 v -4.5 c 0,-0.267 0.092,-0.5 0.275,-0.7 0.183,-0.2 0.425,-0.3 0.725,-0.3 0.266,0 0.5,0.1 0.7,0.3 0.2,0.2 0.3,0.433 0.3,0.7 v 22.949 c 0,0.267 -0.092,0.5 -0.275,0.701 -0.183,0.199 -0.424,0.299 -0.725,0.299"
             style="fill:#ffffff;fill-opacity:1;fill-rule:nonzero;stroke:none"
             id="path56"
             inkscape:connector-curvature="0" /></g><g
           id="g58"
           transform="translate(359.54,325.8701)"><path
             d="M 0,0 C -0.268,0 -0.5,-0.1 -0.7,-0.3 -0.9,-0.5 -1,-0.733 -1,-1 v -34.999 c 0,-0.268 0.091,-0.5 0.274,-0.7 0.183,-0.2 0.425,-0.3 0.726,-0.3 0.266,0 0.5,0.1 0.699,0.3 0.2,0.2 0.301,0.432 0.301,0.7 V -1 C 1,-0.733 0.907,-0.5 0.725,-0.3 0.541,-0.1 0.3,0 0,0"
             style="fill:#ffffff;fill-opacity:1;fill-rule:nonzero;stroke:none"
             id="path60"
             inkscape:connector-curvature="0" /></g><g
           id="g62"
           transform="translate(413.9883,323.8701)"><path
             d="M 0,0 C -0.367,0.066 -0.684,-0.084 -0.95,-0.45 L -14.8,-21.056 -28.649,-0.45 c -0.134,0.167 -0.285,0.283 -0.451,0.35 -0.167,0.067 -0.334,0.1 -0.5,0.1 -0.299,0 -0.534,-0.108 -0.7,-0.325 -0.167,-0.217 -0.25,-0.443 -0.25,-0.675 v -32.999 c 0,-0.268 0.092,-0.5 0.276,-0.7 0.182,-0.2 0.424,-0.3 0.724,-0.3 0.267,0 0.5,0.1 0.7,0.3 0.201,0.2 0.3,0.432 0.3,0.7 v 29.942 l 12.95,-19.542 c 0.067,-0.133 0.175,-0.234 0.326,-0.3 0.149,-0.067 0.307,-0.1 0.474,-0.1 0.166,0 0.308,0.033 0.425,0.1 0.116,0.066 0.208,0.167 0.275,0.3 l 12.9,19.516 v -29.916 c 0,-0.268 0.1,-0.5 0.301,-0.7 0.199,-0.2 0.449,-0.3 0.75,-0.3 0.265,0 0.508,0.1 0.725,0.3 0.217,0.2 0.325,0.432 0.325,0.7 V -1 c 0,0.267 -0.084,0.491 -0.25,0.675 C 0.484,-0.143 0.268,-0.033 0,0"
             style="fill:#ffffff;fill-opacity:1;fill-rule:nonzero;stroke:none"
             id="path64"
             inkscape:connector-curvature="0" /></g><g
           id="g66"
           transform="translate(441.4746,295.7959)"><path
             d="m 0,0 c -0.833,-1.717 -1.983,-3.067 -3.45,-4.05 -1.467,-0.983 -3.133,-1.474 -5,-1.474 -1.867,0 -3.533,0.491 -5,1.474 -1.467,0.983 -2.617,2.333 -3.449,4.05 -0.834,1.717 -1.25,3.658 -1.25,5.825 0,2.166 0.424,4.082 1.274,5.749 0.851,1.666 2.008,2.975 3.476,3.925 1.465,0.95 3.116,1.425 4.949,1.425 1.867,0 3.533,-0.492 5,-1.475 1.467,-0.983 2.617,-2.317 3.45,-4 C 0.833,9.766 1.25,7.892 1.25,5.825 1.25,3.658 0.833,1.717 0,0 m 2.05,18.024 c -0.3,0 -0.542,-0.1 -0.725,-0.299 C 1.142,17.524 1.05,17.291 1.05,17.024 V 12.6 c -0.533,1.25 -1.275,2.34 -2.225,3.274 -0.95,0.933 -2.058,1.658 -3.325,2.175 -1.267,0.516 -2.617,0.775 -4.05,0.775 -2.2,0 -4.175,-0.558 -5.925,-1.675 -1.75,-1.117 -3.133,-2.65 -4.15,-4.6 -1.017,-1.949 -1.524,-4.191 -1.524,-6.724 0,-2.5 0.5,-4.75 1.5,-6.75 1,-2 2.375,-3.584 4.125,-4.75 1.75,-1.167 3.741,-1.75 5.974,-1.75 1.467,0 2.833,0.276 4.1,0.825 1.266,0.55 2.367,1.275 3.301,2.175 0.932,0.901 1.666,1.901 2.199,3 v -4.5 c 0,-0.267 0.092,-0.5 0.275,-0.7 0.183,-0.2 0.425,-0.3 0.725,-0.3 0.266,0 0.5,0.1 0.7,0.3 0.2,0.2 0.3,0.433 0.3,0.7 v 22.949 c 0,0.267 -0.092,0.5 -0.275,0.701 -0.183,0.199 -0.424,0.299 -0.725,0.299"
             style="fill:#ffffff;fill-opacity:1;fill-rule:nonzero;stroke:none"
             id="path68"
             inkscape:connector-curvature="0" /></g><g
           id="g70"
           transform="translate(465.9795,300.1709)"><path
             d="m 0,0 c -0.718,0.533 -1.551,0.976 -2.5,1.325 -0.95,0.35 -1.976,0.658 -3.075,0.925 -1.367,0.366 -2.593,0.767 -3.675,1.2 -1.084,0.433 -1.95,0.983 -2.601,1.65 -0.649,0.666 -1.008,1.515 -1.075,2.549 0,1.1 0.301,2.008 0.901,2.725 0.599,0.717 1.375,1.258 2.325,1.625 0.95,0.366 1.974,0.55 3.075,0.55 1.3,0 2.524,-0.234 3.675,-0.699 1.149,-0.468 2.157,-1.184 3.024,-2.151 0.167,-0.2 0.367,-0.3 0.601,-0.3 0.232,0 0.45,0.067 0.649,0.201 0.234,0.232 0.359,0.491 0.375,0.774 0.017,0.283 -0.108,0.525 -0.375,0.726 -0.766,0.866 -1.599,1.541 -2.5,2.024 -0.899,0.483 -1.8,0.825 -2.699,1.025 -0.9,0.201 -1.75,0.3 -2.551,0.3 -1.667,0 -3.133,-0.292 -4.399,-0.875 -1.268,-0.584 -2.25,-1.392 -2.95,-2.425 -0.701,-1.034 -1.05,-2.2 -1.05,-3.5 0,-1.1 0.232,-2.049 0.7,-2.849 0.466,-0.8 1.1,-1.492 1.899,-2.074 0.8,-0.584 1.726,-1.068 2.776,-1.451 1.05,-0.383 2.157,-0.725 3.325,-1.025 1.1,-0.267 2.149,-0.6 3.149,-1 1,-0.399 1.817,-0.942 2.451,-1.625 0.632,-0.684 0.95,-1.592 0.95,-2.725 0,-1.067 -0.325,-1.967 -0.976,-2.7 -0.649,-0.733 -1.483,-1.283 -2.5,-1.65 -1.016,-0.367 -2.074,-0.55 -3.175,-0.55 -1.833,0 -3.424,0.383 -4.774,1.15 -1.351,0.767 -2.459,1.767 -3.325,3 -0.2,0.233 -0.443,0.358 -0.726,0.375 -0.283,0.017 -0.508,-0.058 -0.675,-0.225 -0.233,-0.167 -0.358,-0.375 -0.375,-0.625 -0.016,-0.25 0.092,-0.574 0.326,-0.975 1.299,-1.599 2.75,-2.75 4.349,-3.45 1.601,-0.7 3.267,-1.05 5,-1.05 1.7,0 3.208,0.276 4.526,0.825 1.316,0.55 2.349,1.333 3.099,2.35 0.75,1.017 1.125,2.226 1.125,3.625 0,1.2 -0.208,2.2 -0.625,3 C 1.282,-1.2 0.716,-0.533 0,0"
             style="fill:#ffffff;fill-opacity:1;fill-rule:nonzero;stroke:none"
             id="path72"
             inkscape:connector-curvature="0" /></g><g
           id="g74"
           transform="translate(483.5742,314.0205)"><path
             d="m 0,0 h -5.5 v 6.35 c 0,0.266 -0.093,0.5 -0.275,0.7 -0.184,0.2 -0.425,0.3 -0.725,0.3 -0.268,0 -0.5,-0.1 -0.7,-0.3 -0.2,-0.2 -0.3,-0.434 -0.3,-0.7 V 0 h -4.101 c -0.233,0 -0.449,-0.093 -0.649,-0.275 -0.2,-0.184 -0.3,-0.409 -0.3,-0.675 0,-0.234 0.1,-0.45 0.3,-0.651 0.2,-0.2 0.416,-0.299 0.649,-0.299 H -7.5 v -17.9 c 0,-1.467 0.2,-2.574 0.6,-3.324 0.4,-0.75 0.891,-1.268 1.475,-1.551 0.582,-0.283 1.133,-0.433 1.65,-0.449 0.516,-0.018 0.875,-0.025 1.075,-0.025 0.566,0 1.041,0.107 1.425,0.325 0.382,0.216 0.575,0.474 0.575,0.774 0,0.234 -0.084,0.442 -0.25,0.625 -0.167,0.184 -0.367,0.276 -0.6,0.276 -0.234,0 -0.433,-0.034 -0.6,-0.1 -0.167,-0.067 -0.368,-0.101 -0.6,-0.101 -0.4,0 -0.817,0.076 -1.25,0.226 -0.434,0.149 -0.792,0.482 -1.075,1 -0.283,0.516 -0.425,1.324 -0.425,2.425 V -1.9 H 0 c 0.267,0 0.491,0.091 0.675,0.275 0.182,0.183 0.275,0.407 0.275,0.675 0,0.232 -0.093,0.45 -0.275,0.649 C 0.491,-0.101 0.267,0 0,0"
             style="fill:#ffffff;fill-opacity:1;fill-rule:nonzero;stroke:none"
             id="path76"
             inkscape:connector-curvature="0" /></g><g
           id="g78"
           transform="translate(491.1934,309.8955)"><path
             d="m 0,0 c 0.933,0.916 1.95,1.6 3.05,2.05 1.1,0.45 2.15,0.675 3.15,0.675 1.433,0 2.817,-0.309 4.15,-0.925 1.333,-0.617 2.475,-1.526 3.425,-2.726 0.95,-1.199 1.508,-2.683 1.675,-4.448 v -0.45 H -2.941 c 0.145,0.844 0.365,1.628 0.666,2.348 C -1.692,-2.075 -0.934,-0.918 0,0 m 16.5,-7.725 c 0.267,0 0.5,0.109 0.7,0.326 0.2,0.216 0.3,0.458 0.3,0.724 -0.067,1.967 -0.425,3.657 -1.075,5.074 -0.65,1.417 -1.5,2.601 -2.55,3.55 C 12.825,2.899 11.633,3.6 10.3,4.05 8.967,4.5 7.6,4.725 6.2,4.725 4.267,4.725 2.441,4.199 0.725,3.149 -0.992,2.1 -2.393,0.591 -3.475,-1.375 -4.559,-3.343 -5.1,-5.725 -5.1,-8.524 c 0,-2.634 0.55,-4.925 1.65,-6.875 1.1,-1.951 2.608,-3.459 4.525,-4.526 1.916,-1.066 4.125,-1.599 6.625,-1.599 1.966,0 3.758,0.5 5.375,1.5 1.616,1 2.942,2.166 3.975,3.5 0.133,0.166 0.2,0.366 0.2,0.599 0,0.234 -0.084,0.442 -0.25,0.625 -0.167,0.184 -0.367,0.276 -0.6,0.276 -0.3,0 -0.584,-0.151 -0.85,-0.451 -0.5,-0.733 -1.15,-1.417 -1.95,-2.049 -0.8,-0.634 -1.7,-1.143 -2.7,-1.526 -1,-0.383 -2.067,-0.574 -3.2,-0.574 -2.367,0 -4.358,0.516 -5.975,1.55 -1.618,1.032 -2.833,2.399 -3.65,4.099 -0.817,1.701 -1.225,3.567 -1.225,5.601 0,0.223 0.017,0.433 0.026,0.649 z"
             style="fill:#ffffff;fill-opacity:1;fill-rule:nonzero;stroke:none"
             id="path80"
             inkscape:connector-curvature="0" /></g><g
           id="g82"
           transform="translate(527.2031,314.4199)"><path
             d="m 0,0 c -0.534,0.133 -1.034,0.2 -1.5,0.2 -1.634,0 -3.075,-0.358 -4.325,-1.075 -1.25,-0.717 -2.309,-1.649 -3.175,-2.8 -0.767,-1.016 -1.359,-2.108 -1.8,-3.266 V -1.6 c 0,0.267 -0.093,0.5 -0.275,0.701 -0.184,0.199 -0.425,0.299 -0.725,0.299 -0.267,0 -0.5,-0.1 -0.7,-0.299 -0.2,-0.201 -0.3,-0.434 -0.3,-0.701 v -22.949 c 0,-0.267 0.091,-0.5 0.275,-0.7 0.182,-0.2 0.424,-0.3 0.725,-0.3 0.266,0 0.5,0.1 0.699,0.3 0.201,0.2 0.301,0.433 0.301,0.7 v 12.5 c 0,1.166 0.25,2.366 0.75,3.599 0.5,1.233 1.175,2.375 2.025,3.426 0.85,1.049 1.792,1.89 2.825,2.524 1.033,0.633 2.083,0.95 3.15,0.95 0.532,0 0.942,-0.075 1.225,-0.224 C -0.542,-1.925 -0.3,-2 -0.101,-2 0.166,-2 0.383,-1.899 0.55,-1.7 0.716,-1.5 0.8,-1.25 0.8,-0.95 0.8,-0.45 0.532,-0.134 0,0"
             style="fill:#ffffff;fill-opacity:1;fill-rule:nonzero;stroke:none"
             id="path84"
             inkscape:connector-curvature="0" /></g><g
           id="g86"
           transform="translate(552.123,295.7461)"><path
             d="m 0,0 c -0.851,-1.65 -2,-2.942 -3.45,-3.875 -1.45,-0.934 -3.109,-1.4 -4.975,-1.4 -1.9,0 -3.575,0.466 -5.025,1.4 -1.45,0.933 -2.592,2.225 -3.425,3.875 -0.834,1.65 -1.25,3.525 -1.25,5.625 0,2.133 0.416,4.007 1.25,5.624 0.833,1.616 1.975,2.892 3.425,3.825 1.45,0.933 3.125,1.4 5.025,1.4 1.866,0 3.525,-0.467 4.975,-1.4 C -2,14.141 -0.851,12.856 0,11.224 0.85,9.591 1.274,7.725 1.274,5.625 1.274,3.525 0.85,1.65 0,0 m -2.375,16.724 c -1.733,1.1 -3.718,1.65 -5.95,1.65 -1.1,0 -2.167,-0.134 -3.2,-0.4 -1.034,-0.267 -2,-0.684 -2.9,-1.25 -0.9,-0.567 -1.7,-1.3 -2.4,-2.2 -0.408,-0.524 -0.772,-1.112 -1.1,-1.749 v 4.599 c 0,0.267 -0.093,0.5 -0.275,0.7 -0.184,0.2 -0.425,0.3 -0.725,0.3 -0.301,0 -0.543,-0.1 -0.725,-0.3 -0.184,-0.2 -0.275,-0.433 -0.275,-0.7 v -33.249 c 0,-0.267 0.1,-0.5 0.3,-0.7 0.2,-0.2 0.433,-0.3 0.7,-0.3 0.3,0 0.541,0.1 0.725,0.3 0.182,0.2 0.275,0.433 0.275,0.7 v 14.479 c 0.376,-0.633 0.777,-1.237 1.225,-1.779 0.717,-0.867 1.508,-1.593 2.375,-2.175 0.866,-0.584 1.807,-1.034 2.825,-1.35 1.017,-0.317 2.075,-0.475 3.175,-0.475 2.2,0 4.175,0.558 5.925,1.675 1.75,1.116 3.132,2.642 4.15,4.575 1.017,1.933 1.524,4.116 1.524,6.55 0,2.467 -0.507,4.657 -1.524,6.574 -1.018,1.916 -2.393,3.425 -4.125,4.525"
             style="fill:#ffffff;fill-opacity:1;fill-rule:nonzero;stroke:none"
             id="path88"
             inkscape:connector-curvature="0" /></g><g
           id="g90"
           transform="translate(561.9766,321.6201)"><path
             d="M 0,0 C -0.534,0 -0.968,-0.15 -1.3,-0.45 -1.634,-0.75 -1.8,-1.134 -1.8,-1.6 V -2 c 0,-0.467 0.157,-0.85 0.475,-1.15 0.316,-0.3 0.741,-0.45 1.275,-0.45 0.5,0 0.907,0.15 1.225,0.45 0.316,0.3 0.474,0.683 0.474,1.15 v 0.4 c 0,0.466 -0.158,0.85 -0.474,1.15 C 0.857,-0.15 0.466,0 0,0"
             style="fill:#ffffff;fill-opacity:1;fill-rule:nonzero;stroke:none"
             id="path92"
             inkscape:connector-curvature="0" /></g><g
           id="g94"
           transform="translate(561.9268,314.6201)"><path
             d="M 0,0 C -0.268,0 -0.5,-0.1 -0.7,-0.3 -0.9,-0.5 -1,-0.733 -1,-1 v -23.749 c 0,-0.268 0.091,-0.5 0.274,-0.7 0.183,-0.2 0.425,-0.3 0.726,-0.3 0.266,0 0.5,0.1 0.699,0.3 0.2,0.2 0.301,0.432 0.301,0.7 V -1 C 1,-0.733 0.907,-0.5 0.725,-0.3 0.541,-0.1 0.3,0 0,0"
             style="fill:#ffffff;fill-opacity:1;fill-rule:nonzero;stroke:none"
             id="path96"
             inkscape:connector-curvature="0" /></g><g
           id="g98"
           transform="translate(573.6465,309.8955)"><path
             d="m 0,0 c 0.933,0.916 1.95,1.6 3.05,2.05 1.1,0.45 2.15,0.675 3.15,0.675 1.433,0 2.817,-0.309 4.15,-0.925 1.333,-0.617 2.475,-1.526 3.425,-2.726 0.95,-1.199 1.508,-2.683 1.675,-4.448 v -0.45 H -2.941 c 0.145,0.844 0.365,1.628 0.666,2.348 C -1.692,-2.075 -0.934,-0.918 0,0 m 16.5,-7.725 c 0.267,0 0.5,0.109 0.7,0.326 0.2,0.216 0.3,0.458 0.3,0.724 -0.067,1.967 -0.425,3.657 -1.075,5.074 -0.65,1.417 -1.5,2.601 -2.55,3.55 C 12.825,2.899 11.633,3.6 10.3,4.05 8.967,4.5 7.6,4.725 6.2,4.725 4.267,4.725 2.441,4.199 0.725,3.149 -0.992,2.1 -2.393,0.591 -3.475,-1.375 -4.559,-3.343 -5.1,-5.725 -5.1,-8.524 c 0,-2.634 0.55,-4.925 1.65,-6.875 1.1,-1.951 2.608,-3.459 4.525,-4.526 1.916,-1.066 4.125,-1.599 6.625,-1.599 1.966,0 3.758,0.5 5.375,1.5 1.616,1 2.942,2.166 3.975,3.5 0.133,0.166 0.2,0.366 0.2,0.599 0,0.234 -0.084,0.442 -0.25,0.625 -0.167,0.184 -0.367,0.276 -0.6,0.276 -0.3,0 -0.584,-0.151 -0.85,-0.451 -0.5,-0.733 -1.15,-1.417 -1.95,-2.049 -0.8,-0.634 -1.7,-1.143 -2.7,-1.526 -1,-0.383 -2.067,-0.574 -3.2,-0.574 -2.367,0 -4.358,0.516 -5.975,1.55 -1.618,1.032 -2.833,2.399 -3.65,4.099 -0.817,1.701 -1.225,3.567 -1.225,5.601 0,0.223 0.017,0.433 0.026,0.649 z"
             style="fill:#ffffff;fill-opacity:1;fill-rule:nonzero;stroke:none"
             id="path100"
             inkscape:connector-curvature="0" /></g><g
           id="g102"
           transform="translate(602.5615,311.2197)"><path
             d="m 0,0 c 1.6,1 3.366,1.5 5.3,1.5 1.232,0 2.274,-0.083 3.125,-0.25 0.849,-0.167 1.508,-0.367 1.974,-0.6 0.5,-0.233 0.867,-0.492 1.101,-0.775 0.232,-0.283 0.457,-0.524 0.675,-0.725 0.216,-0.2 0.508,-0.299 0.875,-0.299 0.266,0 0.491,0.107 0.675,0.325 C 13.907,-0.608 14,-0.383 14,-0.149 14,0.45 13.591,1.025 12.774,1.575 11.957,2.125 10.891,2.566 9.574,2.9 8.258,3.233 6.85,3.4 5.35,3.4 2.816,3.4 0.607,2.792 -1.275,1.575 c -1.884,-1.217 -3.35,-2.817 -4.401,-4.8 -1.05,-1.983 -1.574,-4.141 -1.574,-6.473 0,-2.5 0.524,-4.742 1.574,-6.726 1.051,-1.983 2.508,-3.55 4.375,-4.7 1.867,-1.149 4.017,-1.725 6.45,-1.725 1.8,0 3.359,0.25 4.675,0.75 1.317,0.5 2.342,1.076 3.075,1.725 0.734,0.65 1.101,1.176 1.101,1.575 0,0.267 -0.075,0.484 -0.226,0.651 -0.149,0.166 -0.358,0.25 -0.625,0.25 -0.367,0 -0.683,-0.184 -0.95,-0.55 -0.266,-0.367 -0.75,-0.75 -1.449,-1.151 -0.567,-0.334 -1.242,-0.642 -2.025,-0.924 -0.784,-0.285 -1.925,-0.425 -3.425,-0.425 -2.101,0 -3.943,0.491 -5.526,1.474 -1.583,0.983 -2.817,2.326 -3.7,4.026 -0.883,1.699 -1.324,3.616 -1.324,5.75 0,2.099 0.475,3.99 1.425,5.674 C -2.875,-2.342 -1.601,-1 0,0"
             style="fill:#ffffff;fill-opacity:1;fill-rule:nonzero;stroke:none"
             id="path104"
             inkscape:connector-curvature="0" /></g><g
           id="g106"
           transform="translate(624.5498,309.8955)"><path
             d="m 0,0 c 0.933,0.916 1.95,1.6 3.05,2.05 1.1,0.45 2.15,0.675 3.15,0.675 1.433,0 2.817,-0.309 4.15,-0.925 1.333,-0.617 2.475,-1.526 3.425,-2.726 0.95,-1.199 1.508,-2.683 1.675,-4.448 v -0.45 H -2.941 c 0.145,0.844 0.365,1.628 0.666,2.348 C -1.692,-2.075 -0.934,-0.918 0,0 m 16.4,-15.024 c -0.3,0 -0.584,-0.151 -0.85,-0.451 -0.5,-0.733 -1.15,-1.417 -1.95,-2.049 -0.8,-0.634 -1.7,-1.143 -2.7,-1.526 -1,-0.383 -2.067,-0.574 -3.2,-0.574 -2.367,0 -4.358,0.516 -5.975,1.55 -1.618,1.032 -2.833,2.399 -3.65,4.099 -0.817,1.701 -1.225,3.567 -1.225,5.601 0,0.223 0.017,0.433 0.026,0.649 H 16.5 c 0.267,0 0.5,0.109 0.7,0.326 0.2,0.216 0.3,0.458 0.3,0.724 -0.067,1.967 -0.425,3.657 -1.075,5.074 -0.65,1.417 -1.5,2.601 -2.55,3.55 C 12.825,2.899 11.633,3.6 10.3,4.05 8.967,4.5 7.6,4.725 6.2,4.725 4.267,4.725 2.441,4.199 0.725,3.149 -0.992,2.1 -2.393,0.591 -3.475,-1.375 -4.559,-3.343 -5.1,-5.725 -5.1,-8.524 c 0,-2.634 0.55,-4.925 1.65,-6.875 1.1,-1.951 2.608,-3.459 4.525,-4.526 1.916,-1.066 4.125,-1.599 6.625,-1.599 1.966,0 3.758,0.5 5.375,1.5 1.616,1 2.942,2.166 3.975,3.5 0.133,0.166 0.2,0.366 0.2,0.599 0,0.234 -0.084,0.442 -0.25,0.625 -0.167,0.184 -0.367,0.276 -0.6,0.276"
             style="fill:#ffffff;fill-opacity:1;fill-rule:nonzero;stroke:none"
             id="path108"
             inkscape:connector-curvature="0" /></g></g></g></g></svg>